<svg version="1.1" id="Layer_1" xmlns="http://www.w3.org/2000/svg" xmlns:xlink="http://www.w3.org/1999/xlink" x="0px" y="0px"
	 width="100%" viewBox="0 0 225 225" enable-background="new 0 0 225 225" xml:space="preserve">
<path fill="#020202" opacity="1.000000" stroke="none" 
	d="
M132.000000,1.000000 
	C134.370560,1.000000 136.741104,1.000000 139.796997,1.277188 
	C160.798553,5.948382 167.415878,23.986586 156.376282,45.831921 
	C158.161591,45.831921 159.753860,45.831909 161.346146,45.831921 
	C178.323822,45.832031 195.301941,45.897583 212.278885,45.786102 
	C216.506821,45.758343 218.276199,47.364277 218.238678,51.672131 
	C218.109665,66.484863 218.128418,81.299812 218.227341,96.113014 
	C218.256119,100.421715 216.265930,102.106407 212.154526,102.022156 
	C207.534790,101.927498 202.911621,102.000389 197.890488,102.000389 
	C197.890488,104.002594 197.890488,105.618126 197.890488,107.233650 
	C197.890488,144.351517 197.945709,181.469650 197.766403,218.586655 
	C197.754425,221.062164 195.963486,223.529083 195.000000,226.000000 
	C140.979111,226.000000 86.958214,226.000000 32.295410,225.671295 
	C30.805508,223.009811 29.228344,220.680115 29.218534,218.343811 
	C29.063404,181.396133 29.109514,144.447601 29.109518,107.499275 
	C29.109518,105.742645 29.109518,103.986015 29.109518,102.000374 
	C24.221088,102.000374 19.915974,102.037598 15.611760,101.991165 
	C9.945519,101.930054 8.830334,100.859177 8.819681,95.357300 
	C8.791966,81.044037 8.795632,66.730659 8.817621,52.417381 
	C8.826738,46.482048 9.466210,45.846664 15.469296,45.839279 
	C32.445530,45.818398 49.421810,45.837109 66.398056,45.822163 
	C67.777428,45.820950 69.156693,45.682240 70.758545,45.595348 
	C61.562744,30.295845 62.725529,16.444729 74.306793,7.297205 
	C77.933334,4.432767 82.735794,3.057120 87.000000,1.000001 
	C89.370560,1.000000 91.741112,1.000000 94.757324,1.318513 
	C103.166725,2.438379 108.705391,6.874310 113.543579,13.001625 
	C117.999725,6.210151 124.614616,2.991245 132.000000,1.000000 
M106.280830,216.996140 
	C110.124306,217.326691 108.958656,214.425522 108.961266,212.573013 
	C109.011421,176.934967 109.000526,141.296844 108.987816,105.658730 
	C108.987419,104.547920 108.833138,103.437164 108.750969,102.331299 
	C85.036842,102.331299 61.662148,102.331299 38.316074,102.331299 
	C38.316074,119.897423 38.316074,137.132126 38.316074,154.803146 
	C43.229691,154.803146 47.860512,154.873413 52.487980,154.779221 
	C55.743942,154.712952 58.942181,155.055740 58.874203,159.132980 
	C58.805286,163.266205 55.429050,163.323700 52.283775,163.292358 
	C47.668976,163.246384 43.053383,163.280518 38.261742,163.280518 
	C38.261742,181.427917 38.261742,198.991455 38.261742,216.998291 
	C60.772655,216.998291 83.044243,216.998291 106.280830,216.996140 
M174.494080,154.803879 
	C179.256104,154.803879 184.018143,154.803879 188.656067,154.803879 
	C188.656067,136.776169 188.656067,119.524445 188.656067,102.385262 
	C164.941086,102.385262 141.553101,102.385262 118.258583,102.385262 
	C118.258583,140.706146 118.258583,178.641998 118.258583,216.686890 
	C141.904190,216.686890 165.290726,216.686890 188.651520,216.686890 
	C188.651520,198.808411 188.651520,181.244339 188.651520,163.279556 
	C186.522217,163.279556 184.718628,163.279572 182.915039,163.279556 
	C166.083069,163.279358 149.251038,163.252670 132.419220,163.303055 
	C129.342651,163.312256 126.323456,162.975250 126.211517,159.243027 
	C126.089478,155.174057 129.201828,154.761658 132.499130,154.777191 
	C146.164383,154.841583 159.830109,154.803925 174.494080,154.803879 
M17.327347,68.514420 
	C17.327347,76.597702 17.327347,84.680984 17.327347,92.691895 
	C48.278755,92.691895 78.483917,92.691895 108.671890,92.691895 
	C108.671890,79.835251 108.671890,67.293144 108.671890,54.766098 
	C78.152565,54.766098 47.967472,54.766098 17.327621,54.766098 
	C17.327621,59.266617 17.327621,63.394009 17.327347,68.514420 
M144.500000,93.003952 
	C166.071716,93.003952 187.643433,93.003952 209.282700,93.003952 
	C209.282700,79.896103 209.282700,67.369148 209.282700,54.696266 
	C178.694458,54.696266 148.497803,54.696266 118.308609,54.696266 
	C118.308609,67.570602 118.308609,80.132004 118.308609,93.003952 
	C126.912239,93.003952 135.206116,93.003952 144.500000,93.003952 
M73.323776,30.000231 
	C74.982788,38.296055 79.623512,44.182281 88.175392,45.226074 
	C94.963081,46.054531 101.932640,45.392952 109.003830,45.392952 
	C109.003830,39.889606 109.016510,34.583042 109.001213,29.276560 
	C108.968552,17.945080 101.768814,10.049852 91.436455,9.996228 
	C80.678001,9.940392 73.318642,17.695683 73.323776,30.000231 
M117.996323,42.287849 
	C118.044632,44.034103 117.444641,46.002968 120.520912,45.887077 
	C126.010315,45.680267 131.537964,46.119007 137.001862,45.685677 
	C146.898621,44.900780 154.527634,36.076996 153.772766,26.810230 
	C152.946228,16.663668 144.911362,9.637542 134.548050,9.999092 
	C125.239113,10.323859 118.050552,18.279182 117.999962,28.336309 
	C117.978180,32.666985 117.996300,36.997860 117.996323,42.287849 
z"/>
<path fill="#FEFEFE" opacity="1.000000" stroke="none" 
	d="
M195.468658,226.000000 
	C195.963486,223.529083 197.754425,221.062164 197.766403,218.586655 
	C197.945709,181.469650 197.890488,144.351517 197.890488,107.233650 
	C197.890488,105.618126 197.890488,104.002594 197.890488,102.000389 
	C202.911621,102.000389 207.534790,101.927498 212.154526,102.022156 
	C216.265930,102.106407 218.256119,100.421715 218.227341,96.113014 
	C218.128418,81.299812 218.109665,66.484863 218.238678,51.672131 
	C218.276199,47.364277 216.506821,45.758343 212.278885,45.786102 
	C195.301941,45.897583 178.323822,45.832031 161.346146,45.831921 
	C159.753860,45.831909 158.161591,45.831921 156.376282,45.831921 
	C167.415878,23.986586 160.798553,5.948382 140.241150,1.277188 
	C168.629959,1.000000 197.259918,1.000000 225.944946,1.000000 
	C225.944946,75.999992 225.944946,151.000000 225.944946,226.000000 
	C215.911667,226.000000 205.924500,226.000000 195.468658,226.000000 
z"/>
<path fill="#FEFEFE" opacity="1.000000" stroke="none" 
	d="
M86.531342,1.000001 
	C82.735794,3.057120 77.933334,4.432767 74.306793,7.297205 
	C62.725529,16.444729 61.562744,30.295845 70.758545,45.595348 
	C69.156693,45.682240 67.777428,45.820950 66.398056,45.822163 
	C49.421810,45.837109 32.445530,45.818398 15.469296,45.839279 
	C9.466210,45.846664 8.826738,46.482048 8.817621,52.417381 
	C8.795632,66.730659 8.791966,81.044037 8.819681,95.357300 
	C8.830334,100.859177 9.945519,101.930054 15.611760,101.991165 
	C19.915974,102.037598 24.221088,102.000374 29.109518,102.000374 
	C29.109518,103.986015 29.109518,105.742645 29.109518,107.499275 
	C29.109514,144.447601 29.063404,181.396133 29.218534,218.343811 
	C29.228344,220.680115 30.805508,223.009811 31.826754,225.671295 
	C21.679899,226.000000 11.359799,226.000000 1.039698,226.000000 
	C1.026464,225.846786 1.001635,225.693558 1.001632,225.540344 
	C0.999978,150.802841 1.000000,76.065338 1.000000,1.000000 
	C29.353386,1.000000 57.708035,1.000000 86.531342,1.000001 
z"/>
<path fill="#F6F6F6" opacity="1.000000" stroke="none" 
	d="
M131.531342,1.000000 
	C124.614616,2.991245 117.999725,6.210151 113.543579,13.001625 
	C108.705391,6.874310 103.166725,2.438379 95.201492,1.318513 
	C107.020897,1.000000 119.041786,1.000000 131.531342,1.000000 
z"/>
<path fill="#FE2E3D" opacity="1.000000" stroke="none" 
	d="
M105.798332,216.997223 
	C83.044243,216.998291 60.772655,216.998291 38.261742,216.998291 
	C38.261742,198.991455 38.261742,181.427917 38.261742,163.280518 
	C43.053383,163.280518 47.668976,163.246384 52.283775,163.292358 
	C55.429050,163.323700 58.805286,163.266205 58.874203,159.132980 
	C58.942181,155.055740 55.743942,154.712952 52.487980,154.779221 
	C47.860512,154.873413 43.229691,154.803146 38.316074,154.803146 
	C38.316074,137.132126 38.316074,119.897423 38.316074,102.331299 
	C61.662148,102.331299 85.036842,102.331299 108.750969,102.331299 
	C108.833138,103.437164 108.987419,104.547920 108.987816,105.658730 
	C109.000526,141.296844 109.011421,176.934967 108.961266,212.573013 
	C108.958656,214.425522 110.124306,217.326691 105.798332,216.997223 
M79.712502,154.806152 
	C79.048363,154.806656 78.383331,154.829880 77.720238,154.803818 
	C74.525703,154.678268 71.883812,155.515717 72.033638,159.303558 
	C72.173454,162.838547 74.893311,163.293610 77.762070,163.281387 
	C83.573090,163.256622 89.409363,163.563049 95.179802,163.076141 
	C96.872047,162.933350 98.377556,160.577393 99.968651,159.235779 
	C98.347755,157.761566 96.858963,155.240051 95.080406,155.015701 
	C90.340569,154.417786 85.476021,154.808411 79.712502,154.806152 
z"/>
<path fill="#FE2E3D" opacity="1.000000" stroke="none" 
	d="
M173.994873,154.803802 
	C159.830109,154.803925 146.164383,154.841583 132.499130,154.777191 
	C129.201828,154.761658 126.089478,155.174057 126.211517,159.243027 
	C126.323456,162.975250 129.342651,163.312256 132.419220,163.303055 
	C149.251038,163.252670 166.083069,163.279358 182.915039,163.279556 
	C184.718628,163.279572 186.522217,163.279556 188.651520,163.279556 
	C188.651520,181.244339 188.651520,198.808411 188.651520,216.686890 
	C165.290726,216.686890 141.904190,216.686890 118.258583,216.686890 
	C118.258583,178.641998 118.258583,140.706146 118.258583,102.385262 
	C141.553101,102.385262 164.941086,102.385262 188.656067,102.385262 
	C188.656067,119.524445 188.656067,136.776169 188.656067,154.803879 
	C184.018143,154.803879 179.256104,154.803879 173.994873,154.803802 
z"/>
<path fill="#FB2D3C" opacity="1.000000" stroke="none" 
	d="
M17.327484,68.017914 
	C17.327621,63.394009 17.327621,59.266617 17.327621,54.766098 
	C47.967472,54.766098 78.152565,54.766098 108.671890,54.766098 
	C108.671890,67.293144 108.671890,79.835251 108.671890,92.691895 
	C78.483917,92.691895 48.278755,92.691895 17.327347,92.691895 
	C17.327347,84.680984 17.327347,76.597702 17.327484,68.017914 
z"/>
<path fill="#FB2D3C" opacity="1.000000" stroke="none" 
	d="
M144.000000,93.003952 
	C135.206116,93.003952 126.912239,93.003952 118.308609,93.003952 
	C118.308609,80.132004 118.308609,67.570602 118.308609,54.696266 
	C148.497803,54.696266 178.694458,54.696266 209.282700,54.696266 
	C209.282700,67.369148 209.282700,79.896103 209.282700,93.003952 
	C187.643433,93.003952 166.071716,93.003952 144.000000,93.003952 
z"/>
<path fill="#FBFBFB" opacity="1.000000" stroke="none" 
	d="
M73.278572,29.589432 
	C73.318642,17.695683 80.678001,9.940392 91.436455,9.996228 
	C101.768814,10.049852 108.968552,17.945080 109.001213,29.276560 
	C109.016510,34.583042 109.003830,39.889606 109.003830,45.392952 
	C101.932640,45.392952 94.963081,46.054531 88.175392,45.226074 
	C79.623512,44.182281 74.982788,38.296055 73.278572,29.589432 
z"/>
<path fill="#FBFBFB" opacity="1.000000" stroke="none" 
	d="
M117.996307,41.808247 
	C117.996300,36.997860 117.978180,32.666985 117.999962,28.336309 
	C118.050552,18.279182 125.239113,10.323859 134.548050,9.999092 
	C144.911362,9.637542 152.946228,16.663668 153.772766,26.810230 
	C154.527634,36.076996 146.898621,44.900780 137.001862,45.685677 
	C131.537964,46.119007 126.010315,45.680267 120.520912,45.887077 
	C117.444641,46.002968 118.044632,44.034103 117.996307,41.808247 
z"/>
<path fill="#010000" opacity="1.000000" stroke="none" 
	d="
M80.186783,154.806091 
	C85.476021,154.808411 90.340569,154.417786 95.080406,155.015701 
	C96.858963,155.240051 98.347755,157.761566 99.968651,159.235779 
	C98.377556,160.577393 96.872047,162.933350 95.179802,163.076141 
	C89.409363,163.563049 83.573090,163.256622 77.762070,163.281387 
	C74.893311,163.293610 72.173454,162.838547 72.033638,159.303558 
	C71.883812,155.515717 74.525703,154.678268 77.720238,154.803818 
	C78.383331,154.829880 79.048363,154.806656 80.186783,154.806091 
z"/>
</svg>